<svg width="28" height="28" viewBox="0 0 28 28" fill="none" xmlns="http://www.w3.org/2000/svg">
<path d="M14.0053 0.669333C6.64267 0.669333 0.672005 6.63867 0.672005 14.0027C0.672005 16.3627 1.31201 18.6827 2.52534 20.696L0.666672 27.3333L7.45334 25.552C9.45557 26.6604 11.7116 27.2293 14 27.2027H14.0053C21.368 27.2027 27.3387 21.2333 27.3387 13.8693C27.3387 6.50533 21.368 0.538666 14.0053 0.538666V0.669333ZM14.0053 24.94C12.0467 24.9394 10.1241 24.4126 8.43867 23.4147L8.04134 23.1787L4.01601 24.236L5.08934 20.3093L4.83067 19.9053C3.72913 18.159 3.14395 16.1367 3.14267 14.072C3.14267 8.02933 8.05867 3.11467 14.1013 3.11467C17.0267 3.11467 19.7787 4.25333 21.8467 6.32133C22.8662 7.33681 23.6748 8.54395 24.2258 9.87324C24.7768 11.2025 25.0594 12.6277 25.0573 14.0667C25.0547 20.1093 20.14 25.024 14.0987 25.024L14.0053 24.94ZM20.0693 16.7573C19.736 16.5907 18.1013 15.784 17.796 15.6747C17.4907 15.5627 17.268 15.508 17.0453 15.8413C16.8227 16.1747 16.184 16.924 15.9907 17.1467C15.796 17.3693 15.6013 17.3973 15.268 17.2307C14.9347 17.064 13.8587 16.7107 12.5827 15.5787C11.5893 14.6947 10.9213 13.6053 10.7267 13.272C10.532 12.9387 10.7053 12.7587 10.872 12.592C11.0213 12.4427 11.2053 12.2027 11.372 12.0093C11.5387 11.8147 11.5947 11.676 11.7053 11.4533C11.816 11.2307 11.7613 11.036 11.6773 10.8707C11.5947 10.704 10.9267 9.06533 10.6493 8.39867C10.3787 7.74533 10.1 7.84267 9.89867 7.83067L9.26 7.81867C9.03734 7.81867 8.67601 7.90133 8.37067 8.23467C8.06534 8.568 7.20401 9.37333 7.20401 11.012C7.20401 12.6507 8.39867 14.2347 8.56534 14.456C8.73201 14.6787 10.916 18.04 14.2613 19.484C15.056 19.8293 15.676 20.036 16.16 20.192C16.9573 20.4453 17.6813 20.4093 18.2573 20.324C18.8973 20.228 20.2253 19.5187 20.504 18.74C20.7813 17.9627 20.7813 17.296 20.6987 17.156C20.616 17.0173 20.3933 16.9347 20.06 16.768L20.0693 16.7573Z" fill="black"/>
</svg>
